<svg xmlns="http://www.w3.org/2000/svg" viewBox="0 0 64 64">
	<path class="lines" fill="currentColor" h d="M32,13a1,1,0,0,0,1-1V2a1,1,0,0,0-2,0V12A1,1,0,0,0,32,13Z">
	</path>
	<path class="lines" fill="currentColor" d="M18,17a1,1,0,0,0,1-1V6a1,1,0,0,0-2,0V16A1,1,0,0,0,18,17Z">
	</path>
	<path class="lines" fill="currentColor" d="M46,17a1,1,0,0,0,1-1V6a1,1,0,0,0-2,0V16A1,1,0,0,0,46,17Z">
	</path>
	<path d="M6.306,51H57.694a1,1,0,0,0,.989-1.152,27.2,27.2,0,0,0-22.93-22.579,5,5,0,1,0-7.506,0A27.2,27.2,0,0,0,5.317,49.848,1,1,0,0,0,6.306,51ZM29,24a3,3,0,1,1,3,3A3,3,0,0,1,29,24Z" fill="currentColor">
	</path>
	<path d="M61.763,53.354A1,1,0,0,0,61,53H3a1,1,0,0,0-.986,1.164C2.408,56.528,4.375,61,9,61H55c4.625,0,6.592-4.472,6.986-6.836A1,1,0,0,0,61.763,53.354Z" fill="currentColor">
	</path>
</svg>
